<!--?xml version="1.0" encoding="UTF-8"?--><svg id="Layer_1" xmlns="http://www.w3.org/2000/svg" viewBox="0 0 192 192"><defs><style>.cls-1{fill:none;stroke:#F25A00;stroke-linecap:round;stroke-linejoin:round;stroke-width:7.00px;}</style></defs><path class="cls-1" d="M99.52,139.63h-61.08c-8.37,0-15.15-6.78-15.15-15.14V49.34c0-7.2,5.84-13.03,13.04-13.03h94.37c7.2,0,13.03,5.83,13.03,13.03v50.68"></path><line class="cls-1" x1="23.3" y1="62.81" x2="143.74" y2="62.81"></line><line class="cls-1" x1="43.07" y1="23.68" x2="43.07" y2="43.83"></line><line class="cls-1" x1="83.52" y1="23.68" x2="83.52" y2="43.83"></line><line class="cls-1" x1="123.96" y1="23.68" x2="123.96" y2="43.83"></line><line class="cls-1" x1="45.4" y1="85.01" x2="45.4" y2="85.01"></line><line class="cls-1" x1="45.4" y1="116.25" x2="45.4" y2="116.25"></line><line class="cls-1" x1="121.63" y1="85.01" x2="121.63" y2="85.01"></line><line class="cls-1" x1="83.51" y1="85.01" x2="83.51" y2="85.01"></line><line class="cls-1" x1="83.51" y1="116.25" x2="83.51" y2="116.25"></line><circle class="cls-1" cx="133.84" cy="133.46" r="34.86"></circle><path class="cls-1" d="M142.63,120.24s-3.09-3.11-8.46-3.11c-.11,0-.22,0-.33,0-6.53.15-11.98,4.7-9.67,10.7,1.4,3.64,5.52,4.75,9.67,5.6,3.44.71,6.91,1.25,8.89,2.91,4.36,3.67,2.63,13.44-8.17,13.44-.24,0-.48,0-.71-.02-4.64-.22-8.72-2.63-11.11-5"></path><line class="cls-1" x1="133.84" y1="155.79" x2="133.84" y2="149.77"></line><line class="cls-1" x1="133.84" y1="117.13" x2="133.84" y2="111.13"></line></svg>