<!--?xml version="1.0" encoding="UTF-8"?--><svg id="Layer_1" xmlns="http://www.w3.org/2000/svg" viewBox="0 0 192 192"><defs><style>.cls-1{fill:none;stroke:#F25A00;stroke-linecap:round;stroke-linejoin:round;stroke-width:7.00px;}</style></defs><circle class="cls-1" cx="96" cy="96" r="39"></circle><path class="cls-1" d="M137.56,52.23c-6.83-6.49-15.16-11.41-24.44-14.15v-16.64c0-5.52-4.48-10-10-10h-14.24c-5.52,0-10,4.48-10,10v16.64c-10.34,3.02-17.61,7.65-24.44,14.15l-14.44-8.33c-4.78-2.76-10.9-1.12-13.66,3.66l-7.12,12.33c-2.76,4.78-1.12,10.9,3.66,13.66l14.43,8.33c-1.19,5.31-1.73,9.25-1.73,14.11s.57,9.22,1.73,14.11l-14.43,8.33c-4.78,2.76-6.42,8.88-3.66,13.66l7.12,12.33c2.76,4.78,8.88,6.42,13.66,3.66l14.44-8.33c6.83,6.49,15.16,11.41,24.44,14.15v16.64c0,5.52,4.48,10,10,10h14.24c5.52,0,10-4.48,10-10v-16.64c9.28-2.74,17.61-7.66,24.44-14.15l14.44,8.33c4.78,2.76,10.9,1.12,13.66-3.66l7.12-12.33c2.76-4.78,1.12-10.9-3.66-13.66l-14.43-8.33c1.09-4.54,1.73-9.24,1.73-14.11s-.64-9.58-1.73-14.11h0s14.44-8.32,14.44-8.32c4.78-2.76,6.42-8.88,3.66-13.66l-7.12-12.33c-2.76-4.78-8.88-6.42-13.66-3.66l-14.44,8.33h0Z"></path><path class="cls-1" d="M105.44,81.79s-3.32-3.35-9.1-3.35c-.12,0-.24,0-.35,0-7.02.16-12.88,5.05-10.4,11.5,1.51,3.91,5.93,5.1,10.4,6.02,3.7.76,7.43,1.34,9.55,3.13,4.68,3.94,2.83,14.45-8.78,14.45-.26,0-.52,0-.77-.02-4.99-.24-9.38-2.83-11.94-5.38"></path><line class="cls-1" x1="96" y1="120" x2="96" y2="113.53"></line><line class="cls-1" x1="96" y1="78.45" x2="96" y2="72"></line></svg>