<!--?xml version="1.0" encoding="UTF-8"?--><svg id="Layer_1" xmlns="http://www.w3.org/2000/svg" viewBox="0 0 192 192"><defs><style>.cls-1{fill:none;stroke:#F25A00;stroke-linecap:round;stroke-linejoin:round;stroke-width:7.00px;}</style></defs><path class="cls-1" d="M77.44,34.91h70.08c5.52,0,10,4.48,10,10v12.97"></path><path class="cls-1" d="M65.27,132.79h-31.8c-5.52,0-10-4.48-10-10V39.46c0-5.52,4.48-10,10-10h32.18c4.83,0,9.37,2.27,12.28,6.12l12.2,16.18c2.91,3.85,7.45,6.12,12.28,6.12h56.1c5.52,0,10,4.48,10,10v54.92c0,5.52-4.48,10-10,10h-31.93"></path><circle class="cls-1" cx="96" cy="132.79" r="29.75"></circle><line class="cls-1" x1="96" y1="123.24" x2="96" y2="142.35"></line><line class="cls-1" x1="105.56" y1="132.79" x2="86.44" y2="132.79"></line></svg>