<!--?xml version="1.0" encoding="UTF-8"?--><svg id="Layer_1" xmlns="http://www.w3.org/2000/svg" viewBox="0 0 192 192"><defs><style>.cls-1{fill:none;stroke:#F25A00;stroke-linecap:round;stroke-linejoin:round;stroke-width:7.00px;}</style></defs><rect class="cls-1" x="36.84" y="92.54" width="20.37" height="54.58" rx="8.01" ry="8.01" transform="translate(-4.46 237.81) rotate(-135)"></rect><line class="cls-1" x1="75.49" y1="90.81" x2="66.04" y2="100.26"></line><path class="cls-1" d="M133.87,93.55c7.83-7.38,12.72-17.84,12.72-29.45,0-22.34-18.12-40.45-40.46-40.45s-40.45,18.11-40.45,40.45,18.11,40.45,40.45,40.45c5.49,0,10.72-1.09,15.49-3.07"></path><path class="cls-1" d="M115.14,50.56s-3.17-3.19-8.67-3.19c-.11,0-.22,0-.33,0-6.7.15-12.28,4.82-9.91,10.96,1.44,3.73,5.66,4.87,9.91,5.74,3.53.73,7.08,1.28,9.11,2.99,4.47,3.76,2.69,13.78-8.38,13.78-.25,0-.49,0-.73-.02-4.76-.23-8.94-2.7-11.38-5.13"></path><line class="cls-1" x1="106.13" y1="86.99" x2="106.13" y2="80.83"></line><line class="cls-1" x1="106.13" y1="47.37" x2="106.13" y2="41.22"></line><path class="cls-1" d="M133.87,110.4h6.13c3.38,0,6.13,2.74,6.13,6.13v3.68"></path><path class="cls-1" d="M144.93,112.91h6.13c3.38,0,6.13,2.74,6.13,6.13v3.68"></path><path class="cls-1" d="M155.91,115.3h6.13c3.38,0,6.13,2.74,6.13,6.13v27.71c0,1.93-.34,3.85-1.01,5.66l-3.17,7.48c-1.56,3.68-5.17,6.07-9.17,6.07h-33.04c-4.22,0-7.98-2.66-9.39-6.63l-13.69-38.57c-.85-1.46-.35-3.34,1.11-4.19h0c4.39-2.55,10.01-1.06,12.56,3.32l6.99,12.02c.63,1.08,2.28.64,2.28-.62v-46.57c0-3.4,2.76-6.14,6.16-6.13h0c3.37.02,6.09,2.76,6.09,6.13v33.08"></path></svg>