<!--?xml version="1.0" encoding="UTF-8"?--><svg id="Layer_1" xmlns="http://www.w3.org/2000/svg" viewBox="0 0 192 192"><defs><style>.cls-1{fill:none;stroke:#F25A00;stroke-linecap:round;stroke-linejoin:round;stroke-width:7.00px;}</style></defs><path class="cls-1" d="M106.8,63.24s-6.06-6.1-16.58-6.1c-.21,0-.43,0-.64.01-12.8.29-23.48,9.21-18.95,20.96,2.75,7.13,10.81,9.3,18.95,10.98,6.74,1.39,13.54,2.45,17.41,5.71,8.54,7.19,5.15,26.34-16.01,26.34-.47,0-.94-.01-1.4-.04-9.1-.44-17.09-5.16-21.76-9.8"></path><line class="cls-1" x1="89.58" y1="132.89" x2="89.58" y2="121.1"></line><line class="cls-1" x1="89.58" y1="57.15" x2="89.58" y2="45.39"></line><path class="cls-1" d="M163.19,133.27l-10.39,3.9,11.14,18.58c2.08,3.47.95,7.98-2.52,10.06h0c-3.47,2.08-7.98.95-10.06-2.52l-11.14-18.58-8.33,7.32c-3.24,2.85-8.33.53-8.3-3.79l.25-36.83c.03-3.75,4.01-6.14,7.33-4.39l32.6,17.14c3.82,2.01,3.47,7.59-.57,9.11Z"></path><path class="cls-1" d="M147.78,115.77c3.72-8.11,5.79-17.13,5.79-26.63,0-35.34-28.65-64-64-64S25.57,53.8,25.57,89.14s28.66,64,64,64c12.5,0,24.17-3.58,34.03-9.79"></path></svg>